<?xml version="1.0" encoding="UTF-8"?>
<!--Generator: Apple Native CoreSVG 232.5-->
<!DOCTYPE svg
PUBLIC "-//W3C//DTD SVG 1.1//EN"
       "http://www.w3.org/Graphics/SVG/1.1/DTD/svg11.dtd">
<svg version="1.1" xmlns="http://www.w3.org/2000/svg" xmlns:xlink="http://www.w3.org/1999/xlink" width="228.024" height="228.215">
 <g>
  <rect height="228.215" opacity="0" width="228.024" x="0" y="0"/>
  <path d="M134.667 10.4589L148.96 24.6542C150 25.746 150.994 26.1597 152.523 26.1597L172.647 26.1597C192.164 26.1597 201.888 35.7804 201.888 55.4014L201.888 75.5483C201.888 77.0538 202.25 77.9964 203.417 79.0882L217.612 93.3066C231.484 107.253 231.507 120.842 217.612 134.713L203.417 148.932C202.325 150.047 201.888 151.041 201.888 152.495L201.888 172.619C201.888 192.211 192.291 201.935 172.647 201.935L152.523 201.935C150.994 201.935 150.075 202.297 148.96 203.389L134.667 217.584C120.795 231.53 107.206 231.553 93.3345 217.584L79.0415 203.389C77.9497 202.297 77.0071 201.935 75.5016 201.935L55.3547 201.935C35.7853 201.935 26.113 192.263 26.113 172.619L26.113 152.495C26.113 151.041 25.6994 150.047 24.6076 148.932L10.4122 134.713C-3.45921 120.842-3.48226 107.253 10.4122 93.3066L24.6076 79.0882C25.6994 78.071 26.113 77.0538 26.113 75.5483L26.113 55.4014C26.113 35.6597 35.7107 26.1597 55.3547 26.1597L75.5016 26.1597C77.0071 26.1597 78.0243 25.746 79.0415 24.6542L93.3345 10.5335C107.206-3.48716 120.721-3.51021 134.667 10.4589ZM139.235 76.4084L103.206 133.478L87.6347 115.054C84.8948 111.832 81.9257 110.258 77.9976 110.258C71.1926 110.258 65.5364 115.662 65.5364 122.542C65.5364 125.735 66.49 128.354 69.1485 131.5L91.1982 157.475C94.5579 161.415 98.4114 163.729 103.298 163.729C108.036 163.729 112.286 161.197 115.083 157.177L160.161 89.5138C162.153 86.6653 163.05 83.8224 163.05 81.2033C163.05 74.3983 156.957 69.3796 150.295 69.3796C145.794 69.3796 142.285 71.7397 139.235 76.4084Z" fill="#0a3871"/>
 </g>
</svg>
