<?xml version="1.0" encoding="UTF-8"?>
<!--Generator: Apple Native CoreSVG 232.5-->
<!DOCTYPE svg
PUBLIC "-//W3C//DTD SVG 1.1//EN"
       "http://www.w3.org/Graphics/SVG/1.1/DTD/svg11.dtd">
<svg version="1.1" xmlns="http://www.w3.org/2000/svg" xmlns:xlink="http://www.w3.org/1999/xlink" width="255.338" height="236.403">
 <g>
  <rect height="236.403" opacity="0" width="255.338" x="0" y="0"/>
  <path d="M154.606 190.201L100.709 190.201L100.709 130.574C100.709 125.783 103.886 122.704 108.676 122.704L146.737 122.704C151.527 122.704 154.606 125.783 154.606 130.574ZM35.169 194.861C35.169 210.375 45.9834 220.397 62.6626 220.397L192.647 220.397C209.327 220.397 220.043 210.375 220.043 194.861L220.043 129.976L134.249 57.8418C130.165 54.4184 125.248 54.4414 121.187 57.8418L35.169 129.976ZM0 105.066C0 113.471 5.96007 119.369 15.1131 119.369C19.1158 119.369 23.3017 117.456 26.77 114.528L121.316 35.2571C125.479 31.7373 129.98 31.7373 134.218 35.2571L228.54 114.528C232.06 117.456 236.246 119.369 240.248 119.369C249.165 119.369 255.338 113.776 255.338 105.135C255.338 100.638 253.094 96.1485 249.252 92.8985L147.667 7.52394C135.665-2.50798 119.892-2.50798 107.867 7.52394L6.10929 92.9732C2.24488 96.2977 0 100.805 0 105.066ZM183.893 47.2203L221.461 78.5922L221.461 24.8952C221.461 20.1507 218.428 17.1179 213.683 17.1179L191.745 17.1179C187.023 17.1179 183.893 20.1507 183.893 24.8952Z" fill="#0a3871"/>
 </g>
</svg>
