<?xml version="1.0" encoding="UTF-8"?>
<!--Generator: Apple Native CoreSVG 232.5-->
<!DOCTYPE svg
PUBLIC "-//W3C//DTD SVG 1.1//EN"
       "http://www.w3.org/Graphics/SVG/1.1/DTD/svg11.dtd">
<svg version="1.1" xmlns="http://www.w3.org/2000/svg" xmlns:xlink="http://www.w3.org/1999/xlink" width="229.78" height="199.811">
 <g>
  <rect height="199.811" opacity="0" width="229.78" x="0" y="0"/>
  <path d="M69.0636 196.904C78.9627 196.904 85.5141 189.957 85.5141 180.775C85.5141 175.476 83.1431 171.755 79.9623 168.626L64.6467 153.718L39.4811 133.388L32.2769 142.581L73.3684 144.47L186.81 144.47C216.428 144.47 229.78 131.708 229.78 101.431L229.78 42.97C229.78 13.3522 216.428 0 186.81 0L134.211 0C124.364 0 116.894 7.63661 116.894 17.0474C116.894 26.4582 124.364 34.0948 134.211 34.0948L184.87 34.0948C193.207 34.0948 196.557 37.4679 196.557 45.8051L196.557 98.6704C196.557 107.002 193.207 110.45 184.87 110.45L73.3684 110.45L32.2769 112.316L39.4811 121.509L64.6467 101.202L79.9623 86.3688C83.1431 83.2396 85.5141 79.4959 85.5141 74.1964C85.5141 65.0379 78.9627 58.0673 69.0636 58.0673C64.7 58.0673 60.2958 59.9622 56.9196 63.4129L4.94408 114.911C1.87185 117.96 0 122.892 0 127.423C0 132.005 1.87185 136.96 4.94408 139.934L56.9196 191.582C60.2958 195.032 64.7 196.904 69.0636 196.904Z" fill="#0a3871"/>
 </g>
</svg>
